<?xml version="1.0" encoding="utf-8"?>
<!-- Generator: Adobe Illustrator 24.3.0, SVG Export Plug-In . SVG Version: 6.00 Build 0)  -->
<svg version="1.1" id="图层_1" xmlns="http://www.w3.org/2000/svg" xmlns:xlink="http://www.w3.org/1999/xlink" x="0px" y="0px"
	 viewBox="0 0 747 747" style="enable-background:new 0 0 747 747;" xml:space="preserve">
<style type="text/css">
	.st0{clip-path:url(#SVGID_2_);}
	.st1{fill:url(#椭圆_1_1_);}
	.st2{fill:url(#减去_3_1_);}
	.st3{fill:url(#减去_5_1_);}
	.st4{fill:url(#减去_7_1_);}
	.st5{fill:url(#联合_5_1_);}
	.st6{enable-background:new    ;}
	.st7{fill:#272727;}
	.st8{fill:url(#联合_6_1_);}
	.st9{fill:#F5B6B6;}
</style>
<g>
	<defs>
		<rect id="SVGID_1_" width="747" height="747"/>
	</defs>
	<clipPath id="SVGID_2_">
		<use xlink:href="#SVGID_1_"  style="overflow:visible;"/>
	</clipPath>
	<g id="cxl_2" class="st0">
		
			<linearGradient id="椭圆_1_1_" gradientUnits="userSpaceOnUse" x1="-136.814" y1="885.814" x2="-137.819" y2="884.814" gradientTransform="matrix(747 0 0 -747 102948 661704)">
			<stop  offset="0" style="stop-color:#D1E0FF"/>
			<stop  offset="1" style="stop-color:#ADBAD4"/>
		</linearGradient>
		<circle id="椭圆_1" class="st1" cx="373.5" cy="373.5" r="373.5"/>
		
			<linearGradient id="减去_3_1_" gradientUnits="userSpaceOnUse" x1="-137.51" y1="885.5036" x2="-137.016" y2="884.5626" gradientTransform="matrix(343.766 0 0 -411.3494 47243.418 364679.3438)">
			<stop  offset="0" style="stop-color:#4DA26D"/>
			<stop  offset="1" style="stop-color:#275137"/>
		</linearGradient>
		<path id="减去_3" class="st2" d="M-56.8,773.1c-0.5-0.4-1-0.9-1.5-1.4C-57.9,772.2-57.4,772.7-56.8,773.1L-56.8,773.1z
			 M285.5,736.5L285.5,736.5c-19.9-4.8-39.4-11.3-58.2-19.3c-18.9-8.1-37.2-17.7-54.5-28.7c-58.3-37.2-105.1-89.7-135.3-151.9
			l72.8-169.4c1.4-3.3,4.7-5.5,8.3-5.4c3.6,0,6.9,2.1,8.3,5.4L285.5,736.5L285.5,736.5z"/>
		
			<linearGradient id="减去_5_1_" gradientUnits="userSpaceOnUse" x1="-137.5724" y1="885.4171" x2="-137.0784" y2="884.4761" gradientTransform="matrix(452.1628 0 0 -313.823 62366.8203 278375.2188)">
			<stop  offset="0" style="stop-color:#4DA26D"/>
			<stop  offset="1" style="stop-color:#275137"/>
		</linearGradient>
		<path id="减去_5" class="st3" d="M112.7,779.9c-2.7-0.4-5-2.1-6.3-4.5c0.7,1.3,1.7,2.4,3,3.2
			C110.3,779.2,111.5,779.7,112.7,779.9L112.7,779.9z M373.5,747c-71.1,0.1-140.8-20.2-200.7-58.5l-1-0.6l182.3-218.6
			c1.7-2.1,4.2-3.2,6.9-3.2c2.7,0,5.2,1.2,6.9,3.2l190.6,228.6c-27.8,15.9-57.6,28.1-88.6,36.4C438.5,742.7,406.1,747,373.5,747z"/>
		
			<linearGradient id="减去_7_1_" gradientUnits="userSpaceOnUse" x1="-137.5701" y1="885.5079" x2="-137.0761" y2="884.567" gradientTransform="matrix(408.2369 0 0 -414.574 56597.8359 367539.5312)">
			<stop  offset="0" style="stop-color:#4DA26D"/>
			<stop  offset="1" style="stop-color:#275137"/>
		</linearGradient>
		<path id="减去_7" class="st4" d="M801.3,779.5L801.3,779.5c1-0.3,1.8-0.8,2.6-1.4C803.1,778.7,802.3,779.2,801.3,779.5z
			 M807.3,772.2L807.3,772.2c0.2-1.5,0-3.1-0.6-4.5C807.3,769.1,807.5,770.7,807.3,772.2z M399.1,746.1l190.3-376.2
			c0.8-1.5,2-2.8,3.4-3.7c1.4-0.8,3-1.2,4.6-1.2c1.6,0,3.2,0.4,4.6,1.2c1.5,0.9,2.7,2.2,3.4,3.7l94,185.9
			c-15.3,27.3-33.9,52.5-55.5,75.1c-21.2,22.2-45.1,41.8-71.1,58.2c-25.9,16.4-53.8,29.5-82.9,39.1C460.7,738,430.1,744,399.1,746.1
			L399.1,746.1z"/>
		
			<linearGradient id="联合_5_1_" gradientUnits="userSpaceOnUse" x1="-136.8554" y1="884.1431" x2="-135.9704" y2="883.1282" gradientTransform="matrix(123.0001 0 0 -78 17362.0176 69212)">
			<stop  offset="0" style="stop-color:#FFFFFF"/>
			<stop  offset="1" style="stop-color:#EFEFEF"/>
		</linearGradient>
		<path id="联合_5" class="st5" d="M553.8,320L553.8,320c-15.5-0.2-27.9-12.8-27.8-28.3c0-15.6,12.6-28.2,28.2-28.3c0,0,0,0,0,0
			c0.9,0,1.7,0,2.6,0.1c5.6-13.1,18.5-21.6,32.7-21.6c17.4,0,32.3,12.7,35.1,29.9c0.2,0,0.3,0,0.5,0c13.3,0,24,10.8,24,24
			c0,0,0,0,0,0c0,13.3-10.7,24-23.9,24c0,0,0,0,0,0H553.8z"/>
		<g class="st6">
			<path class="st7" d="M209,368.9c-1.2,3.4-3,5.8-5.4,7c-2.4,1.3-5.5,1.9-9.5,1.9c-2.5,0-5-0.1-7.4-0.4l-3-15.5
				c1.8,0.5,4,0.7,6.4,0.7c1.8,0,3.1-0.7,3.8-2.2c0.7-1.4,1.1-4.1,1.1-8c0-4.5-0.7-9.1-2-13.8c-1.4-4.6-3.9-9.5-7.5-14.6l9-34.2
				h-12.3v111.4h-16.4V273.9h44.7v16.4l-9.7,31.5c3.7,5.8,6.3,11.3,7.8,16.4c1.5,5.1,2.3,10.5,2.3,16.1
				C210.8,360.6,210.2,365.5,209,368.9z M239.1,355.5c-7.9,16.9-15.5,30.3-22.8,40l-13.6-8.8c3.9-5.1,7.7-11.1,11.5-17.8
				c3.8-6.8,7.2-13.4,10.2-20L239.1,355.5z M289.8,343.3h-27.7v39.6c0,6.6-1.1,11.1-3.4,13.7c-2.3,2.6-6.2,3.9-11.8,4.1
				c-6.1,0-11.3-0.2-15.7-0.7l-3-15.7c4.4,0.6,8.7,0.9,13.2,0.9c1.6,0,2.8-0.7,3.6-2s1.1-3.4,1.1-6.2v-33.8h-32.9v-15.7
				c3.4-5.3,7.6-14.6,12.6-27.8h-11.5v-16.1h17.5c2.3-6.8,4.1-12.5,5.4-17.3l17.1,1.9c-0.7,2.6-2.3,7.7-4.9,15.4h42.8v16.1h-49
				c-5.9,14.1-10,23.4-12.2,27.8H246v-20.3h16.1v20.3h27.7V343.3z M278.2,348.1c10,17.7,16.6,30,19.9,37l-14.2,9
				c-2.3-5.3-5.4-11.9-9.3-19.7c-3.9-7.8-7.1-14.1-9.7-18.9L278.2,348.1z"/>
			<path class="st7" d="M429,379l-3.2,7.4h11.9v11.5H372v-11.5h8.3l-3.5-7.5l10-3.5c0.7,1.2,1.6,3.2,2.8,6.1c1,2.3,1.7,4,2.2,4.9
				h4.1v-12.2h-21.9v-10.7h21.9v-5.1h-12.3v-2.8c-3.1,1.7-6,3.3-8.8,4.8l-6.7-10.9c10.1-4.7,19.1-10.6,27.3-17.5h-45.7l-0.3,0.1
				l12.2,7l8.1,4.6l-6.5,9.9l-6.5-4.1v8.4h-9.4v5.1h19.7v10.7h-19.7v12l4.5-0.3c1.4-4.6,2.2-8.1,2.6-10.3l10.3,2.2l-1.9,7.2
				c1.4-0.1,2.4-0.2,3.3-0.3c0.8-0.1,1.4-0.1,1.8-0.1l0.9,11.6c-3.3,0.1-13.2,0.8-29.9,2.2c-16.6,1.4-26.5,2.2-29.6,2.6l-1.5-12
				l5.4-0.3l4.9-0.3l-1.6-3.9l-2-5.1l10-3.3l1.2,2.8l3.6,8.7l3.6-0.1v-13.2h-20.4V363h20.4V358h-8.7v-4.3c-4.3,2.6-8.5,4.9-12.8,6.8
				l-6.4-11.2c5-2.1,9.9-4.7,14.6-7.8c4.7-3,8.9-6.2,12.6-9.5h-20.6v-11.6H338l-2-8.1H322v-10.7h43.6v-4.9h-21.5V293
				c-10.6,4.2-21.6,7.4-32.9,9.9l-5.7-14.1c13.3-2.8,24.8-6,34.5-9.6c9.7-3.6,18.4-8,26.2-13.1h14.4c7.4,5,16,9.3,25.7,12.8
				c9.7,3.5,21.2,6.5,34.7,9l-5.2,14.1c-11.2-2.1-22.3-5.3-33.2-9.4v4.2h-21.3v4.9h43.2v10.7h-12.9c-0.5,2.4-1.2,5.1-2.2,8.1h25.8
				V332h-23.9c7.2,6.6,17.3,12.1,30.3,16.5l-6.4,11.9c-4.5-1.9-8.6-4-12-6.1v4.1h-13.3v5.1h22.5v10.7h-22.5v12.2h4.2
				c1.5-3.5,3-7.2,4.5-11L429,379z M354.5,348.3l-5.9-3.5c-1.2-0.8-2.4-1.5-3.6-2.2c-1.3-0.7-2.5-1.5-3.6-2.2c-2.8,2.7-6,5.4-9.6,8
				H354.5z M349.6,312.3l2,8.1h14.1v-8.1H349.6z M356.4,287.5h34.9c-7.1-3.4-13-7.1-17.8-11C369.1,280.2,363.4,283.8,356.4,287.5z
				 M397,312.3h-15.7v8.1H395L397,312.3z M393.1,349h21.8c-4.4-3.2-8.1-6.5-11.2-9.9C400.2,342.7,396.7,346,393.1,349z"/>
			<path class="st7" d="M515.9,355.5v44.8h-15.5v-4.9h-17.8v5.1h-15.8V377c-3.4,3.3-6.5,6-9.3,8.1l-7.5-13.5
				c4.5-3.5,8.8-7.3,12.8-11.5c4-4.2,7.4-8.4,10.1-12.7h-14.5v-13.9h58.4v13.9h-27.5c-1.4,2.5-2.9,5.2-4.6,8.1H515.9z M452.1,309
				c13.3-6.3,24.8-14,34.5-23.1h-27.3v-14.2H581v14.2h-73.1c-2,2.5-4.2,5-6.5,7.4h70.9v33.5h-92.7v-15.4c-5.6,4-12,7.9-19.3,11.9
				L452.1,309z M482.5,370v11.5h17.8V370H482.5z M496.9,313.7h57.9v-7.4h-57.9V313.7z M583.6,347.4h-32.8c-1.4,2.5-2.9,5.2-4.6,8.1
				h32.6v44.8h-15.7v-4.9h-20.4v5.1h-15.5v-22.3l-5.4,4.6l-5.9-14.5c7.7-6.2,13.9-13.1,18.6-20.9h-12.8v-13.9h61.9V347.4z
				 M542.7,381.5h20.4V370h-20.4V381.5z"/>
		</g>
		<g class="st6">
			<path class="st7" d="M393.7,441.2c1.1-0.8,2-1.8,2.6-3.2l1.7,1c-0.6,1.6-1.7,2.9-3.2,3.9c-1.5,1-3.2,1.4-5.2,1.4
				c-2.2,0-4.2-0.6-5.9-1.7c-1.8-1.1-3.1-2.7-4.2-4.8c-1-2.1-1.5-4.4-1.5-7.1c0-2.6,0.5-5,1.5-7c1-2.1,2.4-3.6,4.2-4.8
				c1.8-1.1,3.7-1.7,5.9-1.7c2,0,3.7,0.5,5.2,1.4c1.5,1,2.5,2.2,3.2,3.9l-1.7,1c-0.6-1.3-1.5-2.4-2.6-3.1c-1.1-0.8-2.5-1.2-4.1-1.2
				c-1.8,0-3.4,0.5-4.8,1.5c-1.4,1-2.5,2.3-3.3,4.1c-0.8,1.8-1.2,3.8-1.2,6s0.4,4.3,1.2,6c0.8,1.8,1.9,3.1,3.3,4.1
				c1.4,1,3,1.5,4.8,1.5C391.2,442.4,392.6,442,393.7,441.2z"/>
			<path class="st7" d="M421.2,417.6l-9.5,13l9.7,13.4h-2.6l-8.4-11.7l-8.4,11.7h-2.5l9.7-13.4l-9.5-13h2.7l8.1,11.3l8.1-11.3H421.2
				z"/>
			<path class="st7" d="M425.4,417.6h2.2v24.4h13.1v1.9h-15.2V417.6z"/>
			<path class="st7" d="M446.8,442.1h13v1.9h-16.2v-1.4l9.3-10.8c1.4-1.6,2.4-3,3-4c0.6-1.1,0.9-2.2,0.9-3.4c0-1.6-0.5-2.9-1.4-3.8
				c-0.9-0.9-2.1-1.4-3.6-1.4c-1.4,0-2.6,0.4-3.7,1.3c-1.1,0.9-1.9,2.1-2.4,3.7l-1.7-1c0.5-1.9,1.5-3.4,3-4.4c1.5-1,3.1-1.5,5-1.5
				c1.4,0,2.6,0.3,3.7,0.9s1.9,1.4,2.5,2.5c0.6,1.1,0.9,2.3,0.9,3.8c0,1.5-0.3,2.9-1,4.2c-0.7,1.3-1.9,2.9-3.5,4.7L446.8,442.1z"/>
			<path class="st7" d="M477.7,440.9c-1.4,2.3-3.4,3.5-6,3.5c-2.6,0-4.6-1.2-6-3.5c-1.4-2.3-2.1-5.7-2.1-10.1
				c0-4.4,0.7-7.8,2.1-10.1s3.4-3.5,6-3.5c2.6,0,4.6,1.2,6,3.5s2.1,5.7,2.1,10.2C479.9,435.2,479.2,438.6,477.7,440.9z M471.7,442.4
				c3.9,0,5.9-3.9,5.9-11.6c0-7.8-2-11.7-5.9-11.7c-3.9,0-5.8,3.9-5.8,11.7C465.9,438.5,467.8,442.4,471.7,442.4z"/>
			<path class="st7" d="M486.7,442.1h13v1.9h-16.2v-1.4l9.3-10.8c1.4-1.6,2.4-3,3-4c0.6-1.1,0.9-2.2,0.9-3.4c0-1.6-0.5-2.9-1.4-3.8
				s-2.1-1.4-3.6-1.4c-1.4,0-2.6,0.4-3.7,1.3c-1.1,0.9-1.9,2.1-2.4,3.7l-1.7-1c0.5-1.9,1.5-3.4,3-4.4c1.5-1,3.1-1.5,4.9-1.5
				c1.4,0,2.6,0.3,3.7,0.9s1.9,1.4,2.5,2.5c0.6,1.1,0.9,2.3,0.9,3.8c0,1.5-0.3,2.9-1,4.2c-0.7,1.3-1.9,2.9-3.5,4.7L486.7,442.1z"/>
			<path class="st7" d="M506.6,442.1h13v1.9h-16.2v-1.4l9.3-10.8c1.4-1.6,2.4-3,3-4c0.6-1.1,0.9-2.2,0.9-3.4c0-1.6-0.5-2.9-1.4-3.8
				c-0.9-0.9-2.1-1.4-3.6-1.4c-1.4,0-2.6,0.4-3.7,1.3c-1.1,0.9-1.9,2.1-2.4,3.7l-1.7-1c0.5-1.9,1.5-3.4,3-4.4c1.5-1,3.1-1.5,5-1.5
				c1.4,0,2.6,0.3,3.7,0.9s1.9,1.4,2.5,2.5c0.6,1.1,0.9,2.3,0.9,3.8c0,1.5-0.3,2.9-1,4.2c-0.7,1.3-1.9,2.9-3.5,4.7L506.6,442.1z"/>
			<path class="st7" d="M547,417.6h1.8V444h-2.1v-22.2l-9.3,14.6h-1.3l-9.3-14.6V444h-2.1v-26.4h1.9l10.2,16.1L547,417.6z"/>
			<path class="st7" d="M569.8,441.2c1.1-0.8,2-1.8,2.6-3.2l1.7,1c-0.6,1.6-1.7,2.9-3.2,3.9s-3.2,1.4-5.2,1.4
				c-2.2,0-4.2-0.6-5.9-1.7s-3.2-2.7-4.2-4.8c-1-2.1-1.5-4.4-1.5-7.1c0-2.6,0.5-5,1.5-7s2.4-3.6,4.2-4.8c1.8-1.1,3.7-1.7,5.9-1.7
				c2,0,3.7,0.5,5.2,1.4s2.5,2.2,3.2,3.9l-1.7,1c-0.6-1.3-1.5-2.4-2.6-3.1c-1.1-0.8-2.5-1.2-4.1-1.2c-1.8,0-3.4,0.5-4.8,1.5
				c-1.4,1-2.5,2.3-3.3,4.1s-1.2,3.8-1.2,6s0.4,4.3,1.2,6c0.8,1.8,1.9,3.1,3.3,4.1s3,1.5,4.8,1.5C567.3,442.4,568.7,442,569.8,441.2
				z"/>
		</g>
		<g class="st6">
			<path class="st7" d="M376.5,454.6h18.6v1.9h-8.3V481h-2.1v-24.4h-8.2V454.6z"/>
			<path class="st7" d="M398.2,460.7c1-2.1,2.4-3.6,4.1-4.8s3.7-1.7,5.9-1.7c2.2,0,4.2,0.6,5.9,1.7s3.1,2.7,4.1,4.8
				c1,2.1,1.5,4.4,1.5,7.1c0,2.7-0.5,5.1-1.5,7.1c-1,2.1-2.4,3.6-4.1,4.8c-1.8,1.1-3.7,1.7-5.9,1.7c-2.2,0-4.2-0.6-5.9-1.7
				c-1.8-1.1-3.1-2.7-4.1-4.8c-1-2.1-1.5-4.4-1.5-7.1C396.7,465.1,397.2,462.7,398.2,460.7z M400.1,473.8c0.8,1.8,1.8,3.1,3.2,4.1
				s3,1.5,4.9,1.5c1.8,0,3.5-0.5,4.9-1.5c1.4-1,2.5-2.3,3.3-4.1c0.8-1.8,1.2-3.8,1.2-6s-0.4-4.3-1.2-6c-0.8-1.8-1.9-3.1-3.3-4.1
				c-1.4-1-3-1.5-4.9-1.5c-1.8,0-3.4,0.5-4.8,1.5c-1.4,1-2.5,2.3-3.3,4.1c-0.8,1.8-1.2,3.8-1.2,6S399.3,472.1,400.1,473.8z"/>
			<path class="st7" d="M432.2,454.6c1.8,0,3.4,0.3,4.7,1c1.4,0.6,2.5,1.6,3.2,2.8c0.8,1.2,1.2,2.6,1.2,4.1c0,1.6-0.4,2.9-1.2,4.1
				c-0.8,1.2-1.8,2.1-3.2,2.8c-1.4,0.6-3,1-4.8,1h-4.9V481h-2.2v-26.4H432.2z M431.9,468.4c2.2,0,3.9-0.5,5.2-1.6
				c1.3-1.1,1.9-2.5,1.9-4.3c0-1.8-0.6-3.2-1.9-4.3c-1.3-1.1-3-1.6-5.2-1.6h-4.6v11.9H431.9z"/>
		</g>
		<g class="st6">
			<path class="st7" d="M178.1,415c-0.9,4-1.9,8-3.1,11.9h11.1v49.8h-23v-49.8h7.7c0.6-1.8,1.2-3.9,1.9-6.3c0.6-2.4,1.1-4.5,1.4-6.3
				L178.1,415z M166.8,447h15.6v-16.5h-15.6V447z M166.8,450.7v22.2h15.6v-22.2H166.8z M221.2,426.4v4c0,6.4-0.1,13.2-0.4,20.4
				c-0.3,7.2-0.7,13.5-1.2,18.8c-0.2,2.3-0.6,4-1.2,5.2c-0.6,1.2-1.5,2.1-2.7,2.6c-1.2,0.5-2.9,0.8-5.1,0.8c-1.8,0.1-4.3,0-7.3-0.3
				l-2-0.1l-0.6-3.9c3.8,0.4,6.9,0.6,9.4,0.6c1.4,0,2.6-0.2,3.3-0.6c0.8-0.4,1.4-1,1.8-2c0.4-0.9,0.7-2.3,0.9-4.1
				c0.9-9.2,1.3-20.1,1.3-32.7v-5.2h-19.7c-1.9,4.7-3.6,8.4-5.2,11.4l-3.3-2.2c2-3.6,3.9-7.7,5.6-12.2c1.7-4.5,3.1-8.9,4.2-13.1
				l3.7,0.8c-1.2,4.6-2.5,8.5-3.7,11.7H221.2z M206.4,460.6c-1.5-2.3-3.4-5-5.8-8.1c-2.4-3.2-4.3-5.7-5.9-7.6l2.9-2.2
				c1.6,1.9,3.5,4.3,5.9,7.4c2.3,3.1,4.3,5.8,5.9,8.1L206.4,460.6z"/>
			<path class="st7" d="M250.9,433.2v3.5H243V480h-3.5v-43.2h-8.3v-3.5h8.3v-18.4h3.5v18.4H250.9z M297.2,461v3.2h-10v7.9
				c0,2.7-0.4,4.6-1.3,5.7c-0.8,1-2.4,1.5-4.7,1.5c-2.9,0-5.4-0.1-7.5-0.4l-0.6-3.4c2.8,0.3,5.2,0.5,7.2,0.5c1.2,0,2.1-0.4,2.6-1.1
				c0.5-0.7,0.8-2,0.8-3.8v-7H250V461h33.7v-4.9h3.5v4.9H297.2z M272.3,431.7v-6.2h-19.8v-3.2h19.8v-7.8h3.3v7.8h11.2
				c-0.8-1.9-1.9-4.2-3.2-6.7l2.9-1c1.3,2.8,2.5,5.4,3.5,7.7h6.6v3.2h-21v6.2h17.2v25.6h-3.6v-4.5h-13.6v4h-3.3v-4h-13.7v4.5h-3.5
				v-25.6H272.3z M272.3,440.8v-6.1h-13.7v6.1H272.3z M258.6,443.7v6.3h13.7v-6.3H258.6z M260.6,464.8c3.5,2.4,6.8,5,9.9,7.8
				l-2.2,2.7c-2.8-2.6-6.1-5.2-9.8-7.8L260.6,464.8z M289.2,440.8v-6.1h-13.6v6.1H289.2z M275.6,443.7v6.3h13.6v-6.3H275.6z"/>
			<path class="st7" d="M368.9,454l-0.7,3.6c-6.7-1-12.7-2.1-17.9-3.4c-5.2-1.3-9.9-2.9-14.1-4.7c-9.6,4.2-20.6,7.2-32.8,9l-0.9-3.7
				c10.9-1.5,20.7-3.9,29.4-7.3c-4.4-2.3-8.6-5-12.5-8.3c-3.5,2.9-7.1,5.4-10.9,7.6l-1.9-3c3.5-1.9,7.1-4.3,10.8-7.4
				c3.7-3.1,6.6-6,8.7-8.6l3.1,1.2c-1.2,1.7-2.4,3.1-3.6,4.3H357v3.2c-4.8,4.2-10.4,7.9-16.8,11.2
				C347.3,450.4,356.9,452.5,368.9,454z M311.4,425.4v9h-3.8v-12.5h27.5c-0.9-2.1-2.1-4.6-3.7-7.4l4-1.2c1.2,2.2,2.4,5,3.8,8.6h25.4
				v12.6h-3.8v-9.1H311.4z M318.3,479.4h-3.7V459h42.8v20.4h-3.7v-3.1h-35.5V479.4z M353.8,473.1v-10.8h-35.5v10.8H353.8z
				 M335.9,445.9c6-2.6,11.1-5.7,15.3-9.3h-28.9l-0.4,0.4C326.3,440.7,330.9,443.7,335.9,445.9z"/>
		</g>
		
			<linearGradient id="联合_6_1_" gradientUnits="userSpaceOnUse" x1="-135.8169" y1="884.0944" x2="-136.7839" y2="883.1434" gradientTransform="matrix(116.2001 0 0 -78 15995.5107 69134)">
			<stop  offset="0" style="stop-color:#FFFFFF"/>
			<stop  offset="1" style="stop-color:#EFEFEF"/>
		</linearGradient>
		<path id="联合_6" class="st8" d="M118.9,242L118.9,242c-11.6,0-21.1-9.5-21-21.1c0-11.6,9.4-21.1,21-21.1l0,0
			c0-19.7,15.9-35.7,35.6-35.8c17.4,0,32.3,12.7,35.1,29.9c0.2,0,0.3,0,0.5,0c13.3,0,24,10.8,24,24c0,0,0,0,0,0
			c0,13.3-10.7,24-23.9,24.1c0,0,0,0,0,0H118.9z"/>
		<circle id="椭圆_12" class="st9" cx="526" cy="147" r="48"/>
	</g>
</g>
</svg>
