<?xml version="1.0" standalone="no"?>
<!DOCTYPE svg PUBLIC "-//W3C//DTD SVG 20010904//EN"
 "http://www.w3.org/TR/2001/REC-SVG-20010904/DTD/svg10.dtd">
<svg version="1.0" xmlns="http://www.w3.org/2000/svg"
 width="512.000000pt" height="512.000000pt" viewBox="0 0 512.000000 512.000000"
 preserveAspectRatio="xMidYMid meet">
<metadata>
Created by potrace 1.14, written by Peter Selinger 2001-2017
</metadata>
<g transform="translate(0.000000,512.000000) scale(0.100000,-0.100000)"
fill="#000000" stroke="none">
<path d="M2378 5115 c-1 -1 -34 -5 -73 -9 -38 -3 -97 -10 -130 -16 -33 -6 -76
-13 -95 -16 -93 -14 -415 -107 -434 -125 -6 -5 -16 -9 -23 -9 -41 0 -364 -167
-476 -246 -26 -19 -51 -34 -56 -34 -5 0 -11 -3 -13 -7 -1 -5 -40 -37 -86 -71
-123 -94 -252 -216 -360 -340 -26 -30 -52 -59 -57 -65 -52 -59 -218 -303 -221
-326 -2 -8 -7 -17 -12 -20 -27 -17 -204 -409 -217 -481 -1 -3 -8 -30 -18 -60
-23 -77 -47 -170 -52 -205 -3 -16 -8 -41 -10 -55 -3 -14 -8 -36 -10 -50 -5
-26 -9 -52 -24 -185 -9 -84 -6 -465 4 -525 3 -19 13 -78 21 -130 16 -96 68
-319 84 -355 8 -19 21 -58 26 -80 6 -26 78 -192 117 -271 61 -123 90 -174 163
-285 331 -501 834 -873 1412 -1044 113 -33 142 -40 207 -51 17 -3 41 -7 55
-10 176 -33 232 -38 455 -39 171 0 271 5 345 19 14 2 43 7 65 10 22 3 51 8 65
11 14 2 48 9 75 15 28 6 59 12 70 14 11 2 32 9 48 15 15 6 27 8 27 6 0 -7 259
85 330 117 251 115 482 260 659 416 78 69 208 200 256 257 22 27 45 53 51 59
6 7 38 50 72 96 34 47 65 90 69 95 17 21 121 203 156 270 104 205 192 459 223
645 3 19 8 38 11 43 2 4 6 24 8 45 3 20 6 46 9 58 27 128 28 641 1 716 -2 7
-7 33 -10 58 -10 79 -28 163 -52 249 -8 29 -16 59 -18 65 -1 6 -5 18 -8 26 -3
8 -14 42 -25 75 -63 187 -175 416 -288 586 -39 59 -77 113 -83 121 -201 244
-343 390 -455 468 -12 8 -30 23 -41 33 -32 30 -233 160 -320 208 -123 68 -266
132 -375 169 -36 12 -72 25 -80 28 -8 3 -19 6 -25 8 -5 1 -41 12 -80 23 -38
10 -83 22 -100 25 -16 3 -64 12 -105 21 -75 15 -115 22 -180 30 -41 5 -467 15
-472 10z"/>
</g>
</svg>
